# xmcd
#
# Track frame offsets:
#	150
#	48003
#	106400
#	140170
#	163858
#	227193
#	263228
#
# Disc length: 4351
#
# Revision: 1
# Processed by: cddbd v1.5.1PL0 Copyright (c) Steve Scherf et al.
# Submitted via: CDex 1.51
# Normalized: r0:TRMNUM
#
DISCID=5f10fd07
DTITLE=Panta Rei - The Dance Continues
DYEAR=1988
DGENRE=Jazz
TTITLE0=Vinter Dans
TTITLE1=Folklore
TTITLE2=Boston Skyline
TTITLE3=Prerequisite
TTITLE4=Yrsno
TTITLE5=Tidigt en morgon
TTITLE6=Mon Amie
EXTD=YEAR: 1988
EXTT0=
EXTT1=
EXTT2=
EXTT3=
EXTT4=
EXTT5=
EXTT6=
PLAYORDER=
